<svg xmlns="http://www.w3.org/2000/svg" xmlns:xlink="http://www.w3.org/1999/xlink" width="1494" height="448" viewBox="0 0 1494 448"><defs><path id="a" d="M64.3652344,29.9609375 C61.656901,29.9609375 59.625651,28.3740234 58.2714844,25.2001953 C57.0865885,22.491862 55.9863281,20.8414714 54.9707031,20.2490234 C54.0820312,19.7835286 51.8815104,19.5507812 48.3691406,19.5507812 C42.2330729,19.5507812 35.4199219,24.2480469 27.9296875,33.6425781 C17.7734375,46.2532552 12.6953125,58.2080078 12.6953125,69.5068359 C12.6953125,74.9658203 14.4514974,79.6630859 17.9638672,83.5986328 C21.5608724,87.6611328 25.8984375,89.6923828 30.9765625,89.6923828 C35.3352865,89.6923828 39.7151693,88.5709635 44.1162109,86.328125 C46.570638,85.0585938 50.3369141,82.561849 55.4150391,78.8378906 C57.8271484,77.0605469 59.6468099,76.171875 60.8740234,76.171875 C62.6936849,76.171875 64.2171224,76.8595378 65.4443359,78.2348633 C66.6715495,79.6101888 67.2851562,81.1442057 67.2851562,82.8369141 C67.2851562,84.7412109 66.4811198,86.4127604 64.8730469,87.8515625 C53.7011719,97.7539062 42.4023438,102.705078 30.9765625,102.705078 C22.2167969,102.705078 14.8111979,99.3408203 8.75976562,92.6123047 C2.91992188,86.0953776 0,78.3935547 0,69.5068359 C0,55.1611328 6.00911458,40.4557292 18.0273438,25.390625 C28.0566406,12.8222656 38.1705729,6.53808594 48.3691406,6.53808594 C50.4427083,6.53808594 52.3046875,6.63330078 53.9550781,6.82373047 C55.6054688,7.01416016 57.0654297,7.32096354 58.3349609,7.74414062 C59.8160807,5.5859375 61.7415365,4.50683594 64.1113281,4.50683594 C67.03125,4.50683594 68.8720703,6.43229167 69.6337891,10.2832031 C70.3108724,13.7109375 70.6494141,17.9215495 70.6494141,22.9150391 C70.6494141,24.6500651 70.1839193,26.1735026 69.2529297,27.4853516 C68.1103516,29.1357422 66.4811198,29.9609375 64.3652344,29.9609375 Z"/><path id="b" d="M100.560911,104.926758 C93.4515358,104.926758 87.336627,102.30306 82.2161842,97.0556641 C76.5032936,91.2158203 73.4987363,83.3658854 73.2025124,73.5058594 C72.9486061,63.9420573 75.3607155,55.5208333 80.4388405,48.2421875 C86.3633197,39.6516927 94.6152728,35.3564453 105.1947,35.3564453 C113.658242,35.3564453 120.069374,39.2285156 124.428098,46.9726562 C127.89815,53.2356771 129.5697,60.7682292 129.442747,69.5703125 C129.315794,78.9648438 126.861367,86.9840495 122.079465,93.6279297 C116.662799,101.160482 109.489947,104.926758 100.560911,104.926758 Z M104.369505,48.2421875 C98.1488014,48.1998698 93.3034238,51.1621094 89.8333717,57.1289062 C87.0827207,61.9108073 85.7073952,67.3697917 85.7073952,73.5058594 C85.7073952,79.6419271 87.3789447,84.4238281 90.7220436,87.8515625 C93.5150124,90.686849 96.7946348,92.1044922 100.560911,92.1044922 C104.961952,92.1044922 108.749387,90.4964193 111.923215,87.2802734 C115.520221,83.7255859 117.424518,78.922526 117.636106,72.8710938 C118.228554,56.4941406 113.806354,48.2845052 104.369505,48.2421875 Z"/><path id="c" d="M198.900142,45.1318359 C198.392329,51.3525391 198.138423,57.5732422 198.138423,63.7939453 C198.138423,77.8857422 198.794348,88.5286458 200.106197,95.7226562 C200.190832,96.3151042 200.23315,96.8017578 200.23315,97.1826172 C200.23315,98.8753255 199.640702,100.27181 198.455806,101.37207 C197.27091,102.472331 195.895585,103.022461 194.329829,103.022461 C191.706132,103.022461 189.780676,101.118164 188.553462,97.3095703 C185.506587,99.5524089 182.343339,101.245117 179.063716,102.387695 C175.784094,103.530273 172.366939,104.101562 168.812251,104.101562 C160.052486,104.101562 152.794999,101.181641 147.03979,95.3417969 C141.115311,89.375 138.153072,81.7154948 138.153072,72.3632812 C138.153072,61.0644531 141.147049,52.0084635 147.135005,45.1953125 C153.122961,38.3821615 160.89884,34.9755859 170.462642,34.9755859 C175.371496,34.9755859 179.158931,35.7373047 181.824947,37.2607422 L187.791743,41.640625 C188.384191,23.8248698 189.082434,11.8277995 189.88647,5.64941406 C190.4366,1.88313802 192.362056,0 195.662837,0 C199.513749,0 201.439204,2.05240885 201.439204,6.15722656 C201.439204,12.039388 200.59285,25.0309245 198.900142,45.1318359 Z M170.716548,46.7822266 C163.607173,46.7822266 158.275142,48.8875326 154.720454,53.0981445 C151.165767,57.3087565 149.388423,63.6458333 149.388423,72.109375 C149.388423,77.5683594 151.324458,82.265625 155.196529,86.2011719 C159.068599,90.1367188 163.607173,92.1044922 168.812251,92.1044922 C172.366939,92.1044922 175.371496,91.4485677 177.825923,90.1367188 C179.264725,89.375 181.613358,87.6188151 184.871822,84.8681641 C185.506587,84.3180339 186.120194,83.6621094 186.712642,82.9003906 L186.522212,71.9189453 L186.585689,64.5556641 L186.712642,57.0654297 C185.104569,53.6376953 182.967525,51.0668945 180.301509,49.3530273 C177.635493,47.6391602 174.440507,46.7822266 170.716548,46.7822266 Z"/><path id="d" d="M241.760857,104.101562 C232.197055,104.101562 224.452915,101.710612 218.528436,96.9287109 C212.053826,91.6389974 208.816521,84.2333984 208.816521,74.7119141 C208.816521,63.7093099 211.482537,54.4840495 216.814568,47.0361328 C222.612094,38.9111328 230.356235,34.8486328 240.04699,34.8486328 C247.07173,34.8486328 252.805779,36.0335286 257.249139,38.4033203 C262.708123,41.3232422 265.437615,45.8089193 265.437615,51.8603516 C265.437615,56.0921224 263.046665,59.9430339 258.264764,63.4130859 C256.148878,64.9365234 251.663201,67.3063151 244.807732,70.5224609 L220.559686,82.0117188 C222.929477,85.5240885 225.881137,88.1689453 229.414666,89.9462891 C232.948195,91.7236328 237.063592,92.6123047 241.760857,92.6123047 C244.680779,92.6123047 248.108514,92.0621745 252.044061,90.9619141 C257.03755,89.5654297 260.253696,87.7351888 261.692498,85.4711914 C263.1313,83.207194 264.675896,82.0751953 266.326287,82.0751953 C267.807407,82.0751953 269.129835,82.6359049 270.293572,83.7573242 C271.457309,84.8787435 272.039178,86.180013 272.039178,87.6611328 C272.039178,92.3583984 268.251743,96.3997396 260.676873,99.7851562 C254.202264,102.66276 247.896925,104.101562 241.760857,104.101562 Z M240.04699,46.2744141 C234.88423,46.2744141 230.588982,48.2739258 227.161248,52.2729492 C223.733514,56.2719727 221.173292,62.2916667 219.480584,70.3320312 L238.967889,61.0644531 C246.627394,57.3404948 252.086378,54.1031901 255.344842,51.3525391 C251.705519,47.9671224 246.606235,46.2744141 240.04699,46.2744141 Z"/><path id="e" d="M407.145374,106.450195 C404.860218,106.450195 402.97708,105.265299 401.49596,102.895508 C400.226429,100.864258 399.083851,97.4788411 398.068226,92.7392578 L395.78307,81.8212891 C394.048044,75.0504557 391.297393,60.1123047 387.531117,37.0068359 L374.835804,75.2832031 L371.090687,87.34375 C369.567249,92.125651 367.980335,96.0400391 366.329945,99.0869141 C364.552601,102.30306 362.16165,103.911133 359.157093,103.911133 C356.660348,103.911133 354.692575,102.556966 353.253773,99.8486328 C352.322783,98.0712891 351.476429,95.8072917 350.71471,93.0566406 L348.87389,86.0107422 C344.599801,71.0725911 340.833525,55.0764974 337.575062,38.0224609 L335.289906,49.3847656 L327.101429,82.9003906 C326.762887,86.8359375 325.704945,92.6546224 323.927601,100.356445 C322.65807,103.657227 320.563343,105.307617 317.643421,105.307617 C315.569854,105.307617 313.919463,104.567057 312.692249,103.085938 C311.634307,101.816406 311.105335,100.250651 311.105335,98.3886719 C311.105335,91.3216146 312.565296,82.6464844 315.485218,72.3632812 L322.46764,46.7822266 L326.149281,26.7871094 C328.01126,17.4348958 329.979033,11.319987 332.052601,8.44238281 C333.745309,5.98795573 335.840036,4.76074219 338.336781,4.76074219 C341.087432,4.76074219 343.139841,6.3264974 344.494007,9.45800781 C346.144398,13.2242839 347.921742,20.9049479 349.826038,32.5 C352.068877,46.422526 355.560088,61.4876302 360.299671,77.6953125 C366.562692,61.4029948 371.979359,44.4335938 376.549671,26.7871094 L378.453968,17.5195312 C379.215687,13.7955729 380.210153,10.7910156 381.437367,8.50585938 C383.087757,5.37434896 385.351755,3.80859375 388.229359,3.80859375 C391.868682,3.80859375 394.640492,7.32096354 396.544788,14.3457031 C397.221872,16.7578125 398.047067,21.7513021 399.020374,29.3261719 C401.517119,48.453776 404.627471,64.7884115 408.351429,78.3300781 L411.461781,89.2480469 C413.069854,95.0878906 413.87389,98.6848958 413.87389,100.039062 C413.87389,101.858724 413.186227,103.382161 411.810902,104.609375 C410.435576,105.836589 408.8804,106.450195 407.145374,106.450195 Z"/><path id="f" d="M435.025621,20.8203125 C432.994371,20.8203125 431.238186,20.1009115 429.757066,18.6621094 C428.275947,17.2233073 427.535387,15.4882812 427.535387,13.4570312 C427.535387,11.4257812 428.275947,9.69075521 429.757066,8.25195312 C431.238186,6.81315104 432.994371,6.09375 435.025621,6.09375 C437.056871,6.09375 438.802477,6.81315104 440.262438,8.25195312 C441.722398,9.69075521 442.452379,11.4257812 442.452379,13.4570312 C442.452379,15.4882812 441.722398,17.2233073 440.262438,18.6621094 C438.802477,20.1009115 437.056871,20.8203125 435.025621,20.8203125 Z M437.882066,72.3632812 C437.882066,74.9023438 437.956122,78.7003581 438.104234,83.7573242 C438.252346,88.8142904 438.326402,92.6123047 438.326402,95.1513672 C438.326402,97.0133464 437.755113,98.5367839 436.612535,99.7216797 C435.469957,100.906576 433.967678,101.499023 432.105699,101.499023 C430.286038,101.499023 428.794339,100.906576 427.630602,99.7216797 C426.466865,98.5367839 425.884996,97.0133464 425.884996,95.1513672 C425.884996,92.6123047 425.81094,88.8142904 425.662828,83.7573242 C425.514716,78.7003581 425.44066,74.9023438 425.44066,72.3632812 C425.44066,68.3854167 425.652249,63.4236654 426.075426,57.4780273 C426.498603,51.5323893 426.710191,46.570638 426.710191,42.5927734 C426.710191,40.6884766 427.29206,39.1438802 428.455797,37.9589844 C429.619534,36.7740885 431.111233,36.1816406 432.930895,36.1816406 C434.750556,36.1816406 436.242255,36.7740885 437.405992,37.9589844 C438.569729,39.1438802 439.151598,40.6884766 439.151598,42.5927734 C439.151598,46.570638 438.940009,51.5323893 438.516832,57.4780273 C438.093655,63.4236654 437.882066,68.3854167 437.882066,72.3632812 Z"/><path id="g" d="M504.03868,54.2724609 C503.742456,59.5621745 501.626571,62.2070312 497.691024,62.2070312 C494.051701,62.2070312 492.23204,60.1123047 492.23204,55.9228516 C492.23204,55.1188151 492.168563,53.6376953 492.04161,51.4794922 L491.85118,46.1474609 C485.164982,46.9514974 479.811792,48.8346354 475.79161,51.796875 C472.025334,54.547526 468.893824,58.6946615 466.397079,64.2382812 L466.524032,99.0234375 C466.524032,103.297526 464.429305,105.43457 460.239852,105.43457 C456.515894,105.43457 454.653915,103.297526 454.653915,99.0234375 L454.653915,54.4628906 C454.653915,53.0664062 454.706812,50.9716797 454.812606,48.1787109 C454.9184,45.3857422 454.971298,43.2910156 454.971298,41.8945312 C454.971298,37.6204427 456.833277,35.4833984 460.557235,35.4833984 C464.70437,35.4833984 466.799097,38.9957682 466.841415,46.0205078 C474.966415,38.1917318 483.980087,34.2773438 493.88243,34.2773438 C497.310165,34.2773438 499.870386,35.5680339 501.563094,38.1494141 C503.255803,40.7307943 504.102157,44.6240234 504.102157,49.8291016 C504.102157,52.0296224 504.080998,53.5107422 504.03868,54.2724609 Z"/><path id="h" d="M561.816388,54.2724609 C561.520164,59.5621745 559.404279,62.2070312 555.468732,62.2070312 C551.829409,62.2070312 550.009747,60.1123047 550.009747,55.9228516 C550.009747,55.1188151 549.946271,53.6376953 549.819318,51.4794922 L549.628888,46.1474609 C542.94269,46.9514974 537.5895,48.8346354 533.569318,51.796875 C529.803042,54.547526 526.671531,58.6946615 524.174786,64.2382812 L524.30174,99.0234375 C524.30174,103.297526 522.207013,105.43457 518.01756,105.43457 C514.293602,105.43457 512.431622,103.297526 512.431622,99.0234375 L512.431622,54.4628906 C512.431622,53.0664062 512.48452,50.9716797 512.590314,48.1787109 C512.696108,45.3857422 512.749005,43.2910156 512.749005,41.8945312 C512.749005,37.6204427 514.610984,35.4833984 518.334943,35.4833984 C522.482078,35.4833984 524.576805,38.9957682 524.619122,46.0205078 C532.744122,38.1917318 541.757794,34.2773438 551.660138,34.2773438 C555.087872,34.2773438 557.648094,35.5680339 559.340802,38.1494141 C561.03351,40.7307943 561.879865,44.6240234 561.879865,49.8291016 C561.879865,52.0296224 561.858706,53.5107422 561.816388,54.2724609 Z"/><path id="i" d="M594.013041,104.926758 C586.903666,104.926758 580.788757,102.30306 575.668314,97.0556641 C569.955424,91.2158203 566.950867,83.3658854 566.654643,73.5058594 C566.400736,63.9420573 568.812846,55.5208333 573.890971,48.2421875 C579.81545,39.6516927 588.067403,35.3564453 598.64683,35.3564453 C607.110372,35.3564453 613.521505,39.2285156 617.880229,46.9726562 C621.350281,53.2356771 623.02183,60.7682292 622.894877,69.5703125 C622.767924,78.9648438 620.313497,86.9840495 615.531596,93.6279297 C610.114929,101.160482 602.942078,104.926758 594.013041,104.926758 Z M597.821635,48.2421875 C591.600932,48.1998698 586.755554,51.1621094 583.285502,57.1289062 C580.534851,61.9108073 579.159525,67.3697917 579.159525,73.5058594 C579.159525,79.6419271 580.831075,84.4238281 584.174174,87.8515625 C586.967143,90.686849 590.246765,92.1044922 594.013041,92.1044922 C598.414083,92.1044922 602.201518,90.4964193 605.375346,87.2802734 C608.972351,83.7255859 610.876648,78.922526 611.088236,72.8710938 C611.680684,56.4941406 607.258484,48.2845052 597.821635,48.2421875 Z"/><path id="j" d="M683.275124,54.2724609 C682.9789,59.5621745 680.863014,62.2070312 676.927467,62.2070312 C673.288145,62.2070312 671.468483,60.1123047 671.468483,55.9228516 C671.468483,55.1188151 671.405007,53.6376953 671.278053,51.4794922 L671.087624,46.1474609 C664.401426,46.9514974 659.048236,48.8346354 655.028053,51.796875 C651.261777,54.547526 648.130267,58.6946615 645.633522,64.2382812 L645.760475,99.0234375 C645.760475,103.297526 643.665749,105.43457 639.476296,105.43457 C635.752337,105.43457 633.890358,103.297526 633.890358,99.0234375 L633.890358,54.4628906 C633.890358,53.0664062 633.943255,50.9716797 634.04905,48.1787109 C634.154844,45.3857422 634.207741,43.2910156 634.207741,41.8945312 C634.207741,37.6204427 636.06972,35.4833984 639.793678,35.4833984 C643.940814,35.4833984 646.03554,38.9957682 646.077858,46.0205078 C654.202858,38.1917318 663.21653,34.2773438 673.118874,34.2773438 C676.546608,34.2773438 679.106829,35.5680339 680.799538,38.1494141 C682.492246,40.7307943 683.3386,44.6240234 683.3386,49.8291016 C683.3386,52.0296224 683.317441,53.5107422 683.275124,54.2724609 Z"/></defs><g fill="none" fill-rule="evenodd"><g fill-rule="nonzero" transform="translate(497.934 175.818)"><use xlink:href="#a" fill="#FF0200"/><use xlink:href="#a" fill="#000" stroke="#FFF"/><use xlink:href="#b" fill="#FF0200"/><use xlink:href="#b" fill="#000" stroke="#FFF"/><use xlink:href="#c" fill="#FF0200"/><use xlink:href="#c" fill="#000" stroke="#FFF"/><use xlink:href="#d" fill="#FF0200"/><use xlink:href="#d" fill="#000" stroke="#FFF"/><use xlink:href="#e" fill="#FF0200"/><use xlink:href="#e" fill="#000" stroke="#FFF"/><use xlink:href="#f" fill="#FF0200"/><use xlink:href="#f" fill="#000" stroke="#FFF"/><use xlink:href="#g" fill="#FF0200"/><use xlink:href="#g" fill="#000" stroke="#FFF"/><use xlink:href="#h" fill="#FF0200"/><use xlink:href="#h" fill="#000" stroke="#FFF"/><use xlink:href="#i" fill="#FF0200"/><use xlink:href="#i" fill="#000" stroke="#FFF"/><use xlink:href="#j" fill="#FF0200"/><use xlink:href="#j" fill="#000" stroke="#FFF"/></g><g fill-rule="nonzero" transform="translate(313 152)"><path fill="#FFF" d="M71.1782447,2.50360011 C71.1782447,2.50360011 73.4004089,7.25316848 70.2587285,12.5134431 C68.6751173,15.1180451 28.599536,23.64684 12.9677604,45.3518567 C3.38946663,60.3410859 -11.2972505,103.751119 35.6236181,132.478347 C56.6958645,143.330856 65.6356054,143 65.6356054,143 C65.6356054,143 51.5874411,133.11673 60.527182,126.400943 C69.4669229,119.685155 82.5444867,116.518776 86.0692988,107.249457 C90.2071218,110.441372 96.9246985,117.131624 103.310228,116.493241 C102.671675,112.35652 101.088064,110.747795 106.170945,110.109413 C111.253826,109.47103 113.83358,109.47103 113.83358,109.47103 C113.83358,109.47103 109.057204,105.640733 103.616733,105.334309 C98.1762622,105.027885 87.9849576,94.4818005 88.291463,90.0131206 C94.9834976,86.1828235 103.616733,79.798995 108.725156,81.7141436 C113.83358,83.6292921 118.942003,86.8212063 119.887062,89.6811615 C119.887062,91.59631 118.942003,94.7882243 123.079826,92.2346929 C127.217649,89.6811615 126.272591,88.097972 127.856202,84.5740987 C129.439813,81.0502254 129.771861,80.4373779 126.272591,77.5518874 C122.773321,74.666397 114.472133,67.9761447 107.754556,69.8912933 C101.036979,71.8064418 87.0143572,77.2199283 79.990275,70.5296761 C82.8509921,64.1458477 87.3208626,53.9317221 85.0986984,46.9095108 C89.2365213,43.7175966 94.0384393,40.2192586 94.6769922,34.473813 C99.4533681,33.8354302 109.670215,30.975475 107.754556,25.8684123 C105.838897,20.7613495 92.2504911,-1.88847387 71.4847501,2.58020605"/><path fill="#FFF" d="M138.888864,54.759758 C142.421338,45.4420938 148.222847,29.6638392 142.756537,29.0203541 C137.290226,28.376869 131.15352,43.1770262 129.554882,47.0379368 C127.956244,50.8988474 121.510123,70.2034004 125.042597,72.7773408 C128.575071,75.3512812 138.888864,54.759758 138.888864,54.759758"/><path fill="#DA687D" d="M109.128626,29.7383402 C110.128517,28.1745526 110.974579,29.5332533 106.667354,29.8408837 C102.360128,30.148514 97.1812015,31.4815789 96.3095011,33.3786328 C94.6686531,36.8907461 94.1046117,45.5813037 87.8488789,47.5039934 C87.5412199,49.7343135 87.8488789,54.8614862 96.6427983,55.835649 C105.436718,56.8098118 105.770015,51.0417426 110.897665,51.1955577 C116.025315,51.3493729 115.538188,49.452319 113.769149,47.9910748 C112.000109,46.5298306 105.923844,36.7882026 105.923844,33.5837197 C105.923844,30.3792368 108.000543,31.5072148 109.128626,29.7383402 M30.4448395,126.359909 C30.4448395,126.359909 27.7271851,119.156231 35.7263188,115.310852 C43.7254525,111.465472 50.9298004,114.51614 52.3911806,117.233541 C53.8525608,119.950943 50.0068235,130.846185 36.2134455,131 C32.8548349,128.282598 30.4448395,126.359909 30.4448395,126.359909"/><path fill="#DA687D" d="M9.63333333,19.8742138 C9.76666667,19.4025157 9.7,18.8993711 9.7,18.3647799 C9.7,17.8616352 9.66666667,17.327044 9.5,16.8238994 C9.53333333,16.7295597 9.5,16.572327 9.5,16.4465409 C9.36666667,16.2893082 9.46666667,16.163522 9.43333333,16.0377358 C9.63333333,15.8490566 9.93333333,15.6289308 9.8,15.3773585 C9.73333333,15.2201258 9.53333333,15.1572327 9.33333333,15.0943396 C9.23333333,14.6540881 9.1,14.1509434 9,13.6477987 C9,13.5220126 9,13.3333333 8.96666667,13.2075472 C8.86666667,12.8930818 8.76666667,12.6100629 8.66666667,12.2641509 C8.6,11.9811321 8.66666667,11.4465409 8.33333333,11.3836478 C8.2,11.0691824 8.13333333,10.8176101 7.96666667,10.5031447 C7.9,10.4716981 7.83333333,10.5345912 7.76666667,10.5031447 C7.66666667,10.408805 7.7,10.2515723 7.6,10.1572327 C7.53333333,10.0943396 7.43333333,10.1257862 7.4,10.0628931 C7.3,9.90566038 7.33333333,9.68553459 7.23333333,9.46540881 C7.08249463,9.34203778 6.95803975,9.19260654 6.86666667,9.02515723 C6.7,8.67924528 6.66666667,8.20754717 6.36666667,7.9245283 C6.3,7.86163522 6.13333333,7.83018868 6.03333333,7.73584906 C5.96666667,7.67295597 5.9,7.54716981 5.83333333,7.45283019 C5.73333333,7.32704403 5.63333333,7.13836478 5.53333333,6.98113208 C5.2,6.44654088 4.76666667,5.81761006 4.43333333,5.22012579 C4.4,5.12578616 4.36666667,4.96855346 4.33333333,4.87421384 C4.23333333,4.62264151 4.03333333,4.40251572 3.93333333,4.1509434 C3.76666667,3.77358491 3.5,3.11320755 3.1,2.7672956 C3.06666667,2.73584906 2.96666667,2.70440252 2.9,2.64150943 C2.86666667,2.57861635 2.86666667,2.48427673 2.8,2.38993711 C2.8,2.35849057 2.66666667,2.35849057 2.63333333,2.29559748 C2.56666667,2.2327044 2.53333333,2.16981132 2.5,2.10691824 C2.36666667,2.01257862 2.16666667,1.94968553 2.06666667,1.82389937 C2,1.72955975 1.96666667,1.60377358 1.86666667,1.47798742 C1.76666667,1.35220126 1.63333333,1.25786164 1.53333333,1.10062893 C1.23333333,0.72327044 1.1,0.220125786 0.633333333,0.0628930818 C0.533333333,0.0314465409 0.366666667,0.0314465409 0.233333333,0 C0.133333333,0.0943396226 0.233333333,0.251572327 0.2,0.34591195 C0.2,0.408805031 0.133333333,0.440251572 0.1,0.503144654 C0.0666666667,0.628930818 2.01040149e-14,0.911949686 2.01040149e-14,1.06918239 C2.01040149e-14,1.22641509 0.1,1.35220126 0.1,1.57232704 C0.1,1.72955975 0.0666666667,1.94968553 0.0666666667,2.13836478 C0.0666666667,2.2327044 0.0666666667,2.32704403 0.0666666667,2.42138365 C0.0666666667,2.57861635 0.0666666667,2.67295597 0.0666666667,2.86163522 C0.0666666667,3.08176101 0.0666666667,3.30188679 0.0333333333,3.52201258 C0.133333333,4.05660377 0.2,4.46540881 0.366666667,5.06289308 C0.433333333,5.31446541 0.6,5.78616352 0.733333333,6.10062893 C1,6.66666667 1.26666667,7.32704403 1.6,7.95597484 C1.7,8.14465409 1.86666667,8.30188679 1.96666667,8.52201258 C2,8.6163522 2.03333333,8.77358491 2.06666667,8.89937107 C2.6,9.93710692 3.33333333,10.8490566 3.9,11.9496855 C4.36666667,12.8301887 4.83333333,13.6477987 5.46666667,14.6226415 C5.73333333,15.0628931 5.96666667,15.5345912 6.26666667,15.8805031 C6.46666667,16.1320755 6.8,16.6352201 7.03333333,17.1069182 C7.1,17.2641509 7.1,17.4213836 7.36666667,17.4528302 C7.6,17.7358491 7.8,18.081761 8.06666667,18.3333333 C8.13333333,18.3962264 8.23333333,18.427673 8.3,18.4591195 C8.36666667,18.5220126 8.4,18.6163522 8.5,18.6792453 C8.66666667,18.8050314 8.96666667,18.9308176 9.16666667,19.1823899 C9.2,19.245283 9.23333333,19.3081761 9.3,19.3710692 C9.43333333,19.5283019 9.66666667,19.9371069 9.9,20 C9.9,20 9.96666667,20 10,20" opacity=".7" transform="matrix(1 0 0 -1 130 54)"/><path fill="#DA687D" d="M11.6967649,27.8390805 C11.8893336,27.2275862 11.9214284,26.5195402 11.985618,25.8436782 C11.985618,25.1678161 11.9535232,24.3954023 11.7609545,23.6229885 C11.7609545,23.4942529 11.7288597,23.2689655 11.7288597,23.108046 C11.5683858,22.8827586 11.6646702,22.7218391 11.6004806,22.5287356 C11.8251441,22.2712644 12.1139971,22.0137931 11.9535232,21.6275862 C11.8572388,21.3701149 11.6004806,21.3057471 11.3758171,21.1770115 C11.1832484,20.5655172 10.9906797,19.8252874 10.798111,19.1494253 C10.7660163,18.9563218 10.7339215,18.7310345 10.6697319,18.537931 C10.509258,18.1195402 10.3166893,17.7011494 10.1883102,17.2183908 C10.0599311,16.8321839 10.0920258,16.1241379 9.67479368,16.0597701 C9.48222499,15.6413793 9.38594064,15.3195402 9.16127717,14.9011494 C9.06499282,14.8367816 9.00080326,14.9333333 8.90451891,14.9011494 C8.80823457,14.7724138 8.77613979,14.5793103 8.67985544,14.4505747 C8.61566588,14.3862069 8.51938153,14.3862069 8.45519197,14.2896552 C8.32681284,14.0965517 8.35890762,13.8068966 8.23052849,13.5172414 C8.09505954,13.3939066 7.97636022,13.253236 7.87748589,13.0988506 L7.84539111,13.0344828 L7.84539111,13.0022989 L7.84539111,13.0022989 L7.84539111,13.0022989 L7.84539111,13.0022989 L7.84539111,13.0344828 L7.84539111,13.0344828 L7.84539111,13.0344828 L7.84539111,13.0344828 L7.84539111,13.0344828 L7.84539111,13.0344828 C7.65282242,12.5195402 7.58863286,11.8758621 7.26768504,11.4574713 C7.17140069,11.3287356 7.01092679,11.2965517 6.91464244,11.1678161 C6.85045288,11.0712644 6.78626331,10.8781609 6.68997897,10.7494253 C6.59369462,10.5563218 6.46531549,10.2988506 6.36903115,10.0735632 C6.04808333,9.30114943 5.5666616,8.4 5.24571379,7.49885057 C5.213619,7.33793103 5.18152422,7.14482759 5.14942944,6.98390805 C5.02105031,6.62988506 4.82848162,6.27586207 4.73219728,5.92183908 C4.53962858,5.37471264 4.28287033,4.4091954 3.76935382,3.89425287 C3.73725904,3.82988506 3.60887991,3.76551724 3.54469035,3.70114943 C3.48050078,3.6045977 3.51259557,3.47586207 3.41631122,3.34712644 C3.38421644,3.31494253 3.28793209,3.28275862 3.22374253,3.2183908 C3.15955297,3.12183908 3.12745818,3.02528736 3.06326862,2.92873563 C2.90279471,2.76781609 2.67813124,2.67126437 2.51765733,2.47816092 C2.42137298,2.34942529 2.35718342,2.15632184 2.22880429,1.9954023 C2.10042517,1.83448276 1.93995126,1.64137931 1.77947735,1.48045977 L1.20177128,0.643678161 C1.04129737,0.386206897 0.816633893,0.16091954 0.559875639,0.0643678161 C0.431496511,0 0.23892782,0.032183908 0.0784539111,0 C-0.0178304343,0.128735632 0.0784539111,0.32183908 0.0784539111,0.482758621 C0.0784539111,0.547126437 0.0142643475,0.643678161 0.0142643475,0.708045977 C0.0142643475,0.901149425 -0.0178304343,1.25517241 0.0142643475,1.44827586 C0.0142643475,1.64137931 0.174738257,1.80229885 0.23892782,2.09195402 C0.271022602,2.31724138 0.23892782,2.57471264 0.23892782,2.83218391 C0.23892782,2.92873563 0.271022602,3.05747126 0.271022602,3.2183908 C0.271022602,3.41149425 0.271022602,3.50804598 0.303117384,3.76551724 C0.335212166,4.05517241 0.303117384,4.34482759 0.271022602,4.63448276 C0.399401729,5.31034483 0.463591293,5.85747126 0.656159984,6.66206897 C0.720349548,7.01609195 0.880823457,7.65977011 1.04129737,8.07816092 C1.16967649,8.49655172 1.3301504,8.91494253 1.45852953,9.36551724 C1.58690866,9.81609195 1.74738257,10.2666667 1.90785648,10.7172414 C2.00414082,11.0068966 2.16461473,11.2643678 2.29299386,11.5862069 C2.35718342,11.7471264 2.35718342,11.9402299 2.42137298,12.1333333 C2.54975211,12.5195402 2.71022602,12.937931 2.90279471,13.291954 C3.08021524,13.648258 3.26210007,14.002309 3.448406,14.354023 L3.73725904,14.9333333 C3.83354338,15.0942529 3.92982773,15.2873563 4.02611208,15.4804598 C4.22891425,15.8614499 4.42155138,16.2477941 4.60381815,16.6390805 C4.92014496,17.2588052 5.25189498,17.8704911 5.59875639,18.4735632 C5.97765664,19.0996458 6.36281342,19.7218994 6.75416853,20.3402299 C7.10721113,20.9195402 7.46025373,21.5632184 7.81329633,22.045977 C8.07005459,22.4 8.48728675,23.0436782 8.77613979,23.6873563 C8.87242413,23.9126437 8.87242413,24.1057471 9.12918239,24.137931 C9.41803542,24.5241379 9.6426989,24.9747126 9.89945715,25.3287356 C9.96364671,25.3931034 10.0599311,25.4574713 10.1562154,25.554023 C10.220405,25.6505747 10.2845945,25.7793103 10.3487841,25.8758621 C10.509258,26.0689655 10.8623006,26.262069 11.0548693,26.6804598 C11.0869641,26.7770115 11.0869641,26.8735632 11.1511536,27.0022989 C11.247438,27.2597701 11.4721015,27.8712644 11.6967649,28 C11.6967649,28 11.7609545,28 11.7930493,28" opacity=".7" transform="matrix(1 0 0 -1 126 68)"/><path fill="#FFF" d="M130.693986,47.7640826 C130.693986,47.7640826 128.213821,57.7417346 129.25549,66 L130.693986,47.7640826 M133.620581,41.0167932 C133.44697,40.3394591 132.206887,60.3729169 132.578912,61.0763023 C132.926135,61.7536364 134.786259,45.2631568 133.620581,41.0167932"/><path fill="#2D2B2C" d="M72.2667717,3 C72.2667717,3 73.7533196,11.5327103 59.8874162,16.0303738 C46.0215128,20.5280374 26.8758015,24.3574766 12.779227,41.2943925 C-1.31734763,58.2056075 -3.88036119,86.2453271 5.73093966,104.672897 C15.3422405,123.074766 38.8194447,146 81.1091685,146 C123.398892,146 157,113.462617 157,90.9742991 C157,79.203271 150.566836,81.8247664 148.337014,92.8504673 C146.337864,102.82243 127.704755,140.037383 80.9297575,140.037383 C34.15476,140.037383 10.2418435,111.560748 7.24311766,87.1448598 C4.27002193,62.728972 11.0363777,41.7056075 35.6156778,29.0607477 C60.1693477,16.4415888 75.7524701,21.478972 72.3436621,3.05140187"/><path fill="#2D2B2C" d="M60.5775559,69.112474 C60.5775559,69.112474 57.7940332,81.8899792 44.2630203,88.0487367 C30.7320074,94.2074942 24.9330018,97.6318656 23,108.26275 C28.1546716,99.7529315 43.1805393,98.0407458 51.5568806,89.7353674 C59.9332219,81.429989 60.5775559,69.086919 60.5775559,69.086919 M64.2115993,39.494217 C64.2115993,39.494217 75.8096104,54.3927881 89.5468102,47.1607201 C103.28401,39.9286522 96.1963365,23.1134554 95.9901496,22.0401449 C95.7839628,20.9923895 97.4850044,40.7719675 87.2014346,44.1707839 C76.8920914,47.5696003 64.2373727,39.494217 64.2373727,39.494217 M33.9536771,128.527873 C33.9536771,128.527873 41.2475374,128.936753 46.6083959,123.007991 C51.9692543,117.053674 48.9537714,107.674985 57.7682598,104.276168 C66.5569749,100.877352 72.5879406,102.998418 72.5879406,102.998418 C72.5879406,102.998418 56.917739,105.119484 55.6290711,114.063737 C54.3404032,123.007991 52.2012145,127.045683 48.7733579,129.805624 C45.3455013,132.565565 40.8351637,133 40.8351637,133 L33.9794505,128.527873 L33.9536771,128.527873 Z"/><path fill="#2D2B2C" d="M67,82 C67,82 80.1109615,79.8349572 86.0964005,66.5354087 C90.9935778,55.6586461 87.7028819,46.2510198 87.7028819,46.2510198 L81.0696682,47.2046696 C81.0696682,47.2046696 83.8162333,55.0916111 81.717443,62.1795488 C79.6186527,69.2674865 74.7732974,77.4637199 67,81.9742257 M137.633362,51.8182726 C132.969384,63.4424904 126.051149,71.7933697 125.247908,71.3552063 C123.796893,70.5562024 125.144264,60.4011208 129.808243,48.7511287 C134.472221,37.1269109 140.302194,28.2605452 142.452806,29.1110977 C144.603419,29.9358759 142.29734,40.1682805 137.633362,51.8182726 M144.422042,28.4667398 C139.110288,25.6057904 132.554808,36.327907 127.191232,48.854226 C121.827657,61.3805449 121.205794,71.4583036 125.351552,73.2625059 C130.870593,75.6595176 136.078702,66.0972453 141.442278,53.5709263 C146.805853,41.0446074 149.215575,31.0183973 144.422042,28.4409655"/><path fill="#2D2B2C" d="M48,91.8722271 C48,91.8722271 51.321096,101.743831 67.9523211,99.728697 C83.6052388,97.8155956 90.3246657,91.8467191 99.9017798,85.9288586 C106.749931,81.6945274 106.338012,83.6076288 107.187595,83.811693 C108.037178,84.0157571 111.898917,86.3624949 115.966616,85.9288586 C116.172576,88.0460242 114.061492,86.3369869 113.186164,88.2500883 C112.774245,89.5254893 116.430025,95.5198738 121.759226,94.6270932 C130.538247,93.1476281 128.066734,89.5254893 129.791644,85.4952223 C131.490809,81.4649552 132.675076,79.3477896 124.127759,73.6084853 C117.485567,67.6651168 113.829787,69.1700899 110.611671,69.1700899 C107.393555,69.1700899 99.0264522,73.6084853 93.2338428,72.5626565 C87.4412335,71.5168277 83.8111983,69.3741541 83.8111983,69.3741541 L79.9752036,73.6084853 C79.9752036,73.6084853 87.0293146,78.9141533 95.1904575,77.0010518 C103.325856,75.0879504 109.350169,68.9405177 116.430025,72.1290201 C123.509881,75.3175226 124.874362,77.4346882 127.036937,79.0161854 C129.482705,80.8017467 129.714409,82.7148482 127.989499,84.4238854 C126.290334,86.1074147 127.989499,87.3828157 126.933957,89.2959171 C125.878415,91.2090186 120.497724,92.0507832 120.497724,92.0507832 C120.497724,92.0507832 126.367568,84.5769336 119.210478,83.9902491 C114.061492,83.5821208 110.843375,76.7714797 103.55756,80.3936184 C93.1051182,85.5717463 78.2502933,94.423029 67.9523211,95.4688578 C57.9375432,96.4891786 54.2302732,93.3516922 51.6557801,87.4083237 C48.6693682,89.9591256 48.0257449,91.8722271 48.0257449,91.8722271"/><path fill="#2D2B2C" d="M85.2859796,93.7558236 C85.2859796,93.7558236 92.5767322,97.5896344 90.4384549,105.896224 C88.3001777,114.202814 78.6392865,119.95353 72.4047913,122.713874 C66.1960586,125.474218 61.5588308,129.129117 66.1960586,131.429404 C70.0604151,133.346309 72.1986923,128.46459 77.789128,127.595593 C83.3538014,126.752155 88.3001777,128.87353 88.7381381,132.068372 C86.3937618,130.790435 84.6676826,130.790435 84.6676826,130.790435 C84.6676826,130.790435 86.5998608,132.068372 86.8059598,134.189748 C87.0120589,136.311123 86.5998608,135.237656 85.311742,135.237656 C82.0914449,135.237656 81.6792469,132.477312 78.8711479,132.911811 C71.7864943,133.550779 71.3742963,136.515593 67.5099398,136.950091 C63.6455833,137.359031 57.2049892,135.263215 58.08091,130.355937 C58.9310684,125.474218 65.5777615,122.049347 71.8122567,119.493473 C78.0209894,116.937599 87.4757816,108.861038 86.1876628,101.602356 C84.899544,94.3692334 79.3348706,95.8516402 79.3348706,95.8516402 L85.3375044,93.7302649 L85.2859796,93.7558236 Z M103.577267,33.46276 C103.577267,33.46276 106.617227,34.9707256 108.549406,42.6383471 C109.837525,45.3986908 111.537841,47.622301 113.057822,48.2612695 C114.552039,48.9002379 112.413762,49.5392064 111.357505,49.3091778 C110.301247,49.1047079 108.034158,48.1590345 106.53994,49.4114127 C105.045722,50.6637909 101.387465,54.0886618 96.2349897,53.2452235 C91.0825144,52.4017851 86.7029103,49.1558253 86.7029103,49.1558253 C86.7029103,49.1558253 88.6350886,57.6157677 100.099346,57.0790342 C108.059921,56.7212119 106.308079,52.606255 111.692416,51.7628166 C117.05099,50.9193783 116.484218,48.2357107 115.324911,46.0121005 C113.521544,42.5105534 107.828059,41.667115 107.184,31.3925022 C106.53994,30.3445939 102.52101,31.5202959 103.603029,33.4372013 M121.945842,86.880523 C122.409564,87.3405803 118.158772,96.9251072 118.158772,96.9251072 C118.158772,96.9251072 117.308614,99.2509524 115.015762,98.4330727 C112.671386,97.5896344 113.289683,95.9027577 113.289683,95.9027577 L118.751307,86.0626434 C118.751307,86.0626434 121.739742,86.6504944 121.971604,86.880523 M128,73.2577155 L126.943743,76.4525578 L123.440059,73.794449 L124.367505,71.7753087 L128,73.2577155 L128,73.2577155 Z"/><path fill="#2D2B2C" d="M88.3889787,91.4340657 C87.7478281,93.7571601 95.8519716,107.389384 101.417159,106.521415 C106.9567,105.678974 107.803019,107.363856 106.110381,108.436053 C104.417743,109.482722 101.417159,109.916707 101.853141,111.39736 C102.263477,112.878014 103.443195,114.358668 100.69907,113.950211 C97.9292995,113.541755 92.2615282,110.55492 88.8506071,104.811005 C87.7991201,108.206297 87.3631377,109.278494 87.3631377,109.278494 C87.3631377,109.278494 98.2626978,120.536567 109.367426,115.86485 C107.443974,114.384196 102.109601,114.818181 106.597655,112.26533 C111.08571,109.712479 114.496631,108.870038 116.625251,112.903542 C117.676738,112.699314 117.676738,103.330351 103.597071,103.968564 C98.6986802,103.330351 92.05636,93.7571601 92.05636,88.8812147 C90.7740589,90.1576402 89.0814213,89.0854428 88.4402707,91.4340657 M131.884635,44.3850221 C131.884635,44.3850221 129.089218,52.7583733 130.268935,59.702128 L131.884635,44.3850221 M134.756989,39.4324912 C134.628759,38.921921 133.474688,54.0347988 133.731149,54.545369 C133.987609,55.0559392 135.603308,42.6490834 134.756989,39.4324912 M97.416379,31.05914 C97.416379,31.05914 109.47001,30.0124711 107.34139,25.2131112 C100.904238,10.7895032 88.6454389,2.36509492 66,3.20753575 C78.8230118,-1.89816622 89.7225719,-1.25995347 100.18615,7.67502497 C105.417938,12.1425142 107.828665,17.5800868 109.700824,21.7412339 C112.675763,28.3786464 111.803798,28.9913307 108.521107,30.8549119 C104.494682,33.1014208 97.5702551,31.6718242 97.416379,31.05914"/><path fill="#2D2B2C" d="M98.6148578,32.7762963 C98.6148578,32.7762963 101.658093,35.2095293 104.064372,33.2137315 C105.149556,31.901426 105.880876,31.1905939 102.790459,31.3546321 L98.9923133,31.1905939 C96.3737157,30.5891206 96.4208976,31.4913306 98.6384487,32.7762963 L98.6148578,32.7762963 Z"/></g></g></svg>